#!Matlab matrix to amc conversion
:FULLY-SPECIFIED
:DEGREES
1
root 9.287220 16.950000 -34.276200 0.000000 0.000000 0.000000
lowerback 0.000000 0.000000 0.000000
upperback 0.000000 0.000000 0.000000
thorax 0.000000 0.000000 0.000000
lowerneck -16.000000 0.000000 0.000000
upperneck 21.000000 0.000000 0.000000
head 11.000000 0.000000 0.000000
rclavicle 0.000000 0.000000
rhumerus 0.000000 0.000000 0.000000
rradius 0.000000
rwrist 0.000000
rhand 0.000000 0.000000
rfingers 0.000000
rthumb 0.000000 0.000000
lclavicle 0.000000 0.000000
lhumerus 0.000000 0.000000 0.000000
lradius 0.000000
lwrist 0.000000
lhand 0.000000 0.000000
lfingers 0.000000
lthumb 0.000000 0.000000
rfemur 0.000000 0.000000 21.000000
rtibia 0.000000
rfoot 0.000000 0.000000
rtoes 0.000000
lfemur 0.000000 0.000000 -21.000000
ltibia 0.000000
lfoot 0.000000 0.000000
ltoes 0.000000
2
root 9.287220 16.950000 -34.276200 1.834280 1.634016 0.028674
lowerback -3.384651 0.937547 5.786250
upperback -2.880185 1.132610 3.061929
thorax -1.002215 0.511409 0.061158
lowerneck -18.787833 -2.501223 -3.086379
upperneck 31.841630 -2.066646 -1.416987
head 14.341422 -1.450919 -0.435169
rclavicle -0.000000 0.000000
rhumerus -41.103326 -9.429700 -73.251956
rradius 22.650333
rwrist -6.193309
rhand -4.189721 11.654610
rfingers 7.125020
rthumb 21.581201 -17.142883
lclavicle -0.000000 0.000000
lhumerus -49.289542 25.029724 65.321688
lradius 33.269427
lwrist -3.758294
lhand -1.199625 22.142923
lfingers 7.125020
lthumb 24.425022 50.546394
rfemur -26.682525 10.123727 27.397201
rtibia 28.719759
rfoot -19.896846 -15.274870
rtoes -8.589699
lfemur -15.610453 0.645866 -16.959201
ltibia 58.741780
lfoot -8.233903 15.283926
ltoes 0.239880
3
root 9.273270 17.016600 -33.905900 1.871931 1.634016 0.016479
lowerback -2.945154 1.249971 6.032521
upperback -2.808663 1.583345 2.816172
thorax -1.113010 0.727994 -0.330505
lowerneck -18.807688 -2.175110 -2.690184
upperneck 32.007015 -1.642539 -1.644937
head 14.404767 -1.253989 -0.523136
rclavicle -0.000000 0.000000
rhumerus -39.200259 -8.779697 -73.720701
rradius 23.705715
rwrist -7.159386
rhand -4.630106 11.867932
rfingers 7.125020
rthumb 21.156125 -16.974780
lclavicle -0.000000 0.000000
lhumerus -51.239187 26.438144 63.068982
lradius 30.802146
lwrist -5.241325
lhand -0.663244 21.939837
lfingers 7.125020
lthumb 24.940624 50.255363
rfemur -25.036133 10.717140 27.692262
rtibia 28.826420
rfoot -20.801412 -15.786779
rtoes -9.525535
lfemur -20.595950 1.511557 -17.157168
ltibia 60.202921
lfoot -9.620221 14.645681
ltoes -2.488899
4
root 9.268420 17.025800 -33.555600 1.875758 1.634016 0.011810
lowerback -2.506143 1.532953 6.206542
upperback -2.731891 1.982055 2.586980
thorax -1.220058 0.919787 -0.687557
lowerneck -18.844144 -1.861091 -2.320970
upperneck 32.167373 -1.235995 -1.841166
head 14.467739 -1.063742 -0.599183
rclavicle -0.000000 0.000000
rhumerus -37.488657 -8.213405 -74.141525
rradius 24.730822
rwrist -8.076660
rhand -5.063112 11.982093
rfingers 7.125020
rthumb 20.738404 -16.895004
lclavicle -0.000000 0.000000
lhumerus -53.115368 27.806005 60.860261
lradius 28.621169
lwrist -6.625113
lhand -0.170504 21.739981
lfingers 7.125020
lthumb 25.414276 49.971065
rfemur -23.450371 11.300481 27.949258
rtibia 28.917731
rfoot -21.593117 -16.278001
rtoes -10.212757
lfemur -25.170735 2.022443 -17.341410
ltibia 61.074515
lfoot -10.951817 14.118294
ltoes -4.487817
5
root 9.249270 17.016300 -33.220600 1.847824 1.634016 0.008650
lowerback -2.062015 1.799034 6.344807
upperback -2.647338 2.353680 2.355461
thorax -1.326799 1.098727 -1.037442
lowerneck -18.899648 -1.544485 -1.951856
upperneck 32.324723 -0.823755 -2.036285
head 14.531260 -0.871423 -0.673284
rclavicle -0.000000 0.000000
rhumerus -35.793574 -7.662164 -74.574213
rradius 25.760645
rwrist -9.018703
rhand -5.498533 12.036653
rfingers 7.125020
rthumb 20.318602 -16.875605
lclavicle -0.000000 0.000000
lhumerus -54.990978 29.179811 58.634324
lradius 26.498714
lwrist -7.996001
lhand 0.290230 21.540523
lfingers 7.125020
lthumb 25.857156 49.689576
rfemur -21.872305 11.891110 28.186665
rtibia 29.021018
rfoot -22.351599 -16.779143
rtoes -10.697485
lfemur -29.661183 2.416735 -17.542920
ltibia 61.593189
lfoot -12.347716 13.654469
ltoes -6.642050
6
root 9.246830 17.017700 -32.897400 1.773060 1.634016 0.002927
lowerback -1.607104 2.060004 6.476312
upperback -2.552215 2.721469 2.102531
thorax -1.436660 1.275950 -1.407052
lowerneck -18.977928 -1.210489 -1.555963
upperneck 32.481044 -0.382234 -2.260734
head 14.596261 -0.668183 -0.755157
rclavicle -0.000000 0.000000
rhumerus -33.941750 -7.059143 -75.080233
rradius 26.830335
rwrist -10.061076
rhand -5.946217 12.050517
rfingers 7.125020
rthumb 19.887234 -16.909785
lclavicle -0.000000 0.000000
lhumerus -56.938886 30.606264 56.329492
lradius 24.213110
lwrist -9.439527
lhand 0.729835 21.338641
lfingers 7.125020
lthumb 26.279715 49.407014
rfemur -20.249260 12.506601 28.421550
rtibia 29.167187
rfoot -23.153153 -17.321427
rtoes -11.012252
lfemur -34.387651 2.878279 -17.795599
ltibia 61.899758
lfoot -13.932690 13.212609
ltoes -9.905548
